<svg xmlns="http://www.w3.org/2000/svg" width="1600" height="1000" viewBox="0 0 1600 1000">
  <defs>
    <marker id="arrow" markerWidth="10" markerHeight="10" refX="9" refY="3" orient="auto" markerUnits="strokeWidth"><path d="M0,0 L0,6 L9,3 z" fill="#1f2937"/></marker>
    <marker id="arrowBlue" markerWidth="10" markerHeight="10" refX="9" refY="3" orient="auto" markerUnits="strokeWidth"><path d="M0,0 L0,6 L9,3 z" fill="#1a73e8"/></marker>
    <style>
      .title{font:700 34px Arial,sans-serif;fill:#0f172a}.sub{font:18px Arial,sans-serif;fill:#334155}.h{font:700 18px Arial,sans-serif;fill:#0f3d91}.t{font:15px Arial,sans-serif;fill:#1f2937}.sm{font:13px Arial,sans-serif;fill:#475569}.box{fill:#fff;stroke:#9bb7e6;stroke-width:2}.panel{fill:#f8fbff;stroke:#1a73e8;stroke-width:2}.soft{fill:#eef5ff;stroke:#9bb7e6;stroke-width:1.5}.green{fill:#effaf3;stroke:#34a853;stroke-width:1.5}.purple{fill:#f7f1ff;stroke:#8b5cf6;stroke-width:1.5}.line{stroke:#1f2937;stroke-width:2;fill:none;marker-end:url(#arrow)}.dash{stroke:#1f2937;stroke-width:2;stroke-dasharray:8 6;fill:none;marker-end:url(#arrow)}.flow{stroke:#1a73e8;stroke-width:2.5;fill:none;marker-end:url(#arrowBlue)}
    </style>
  </defs>
  <rect width="1600" height="1000" fill="#ffffff"/>
  <rect x="24" y="22" width="82" height="68" rx="12" fill="#0b57d0"/><text x="65" y="67" text-anchor="middle" font-family="Arial" font-size="38" font-weight="700" fill="#fff">01</text>
  <text x="126" y="53" class="title">System Context Diagram</text><text x="126" y="82" class="sub">NovaCura — AI-Powered Regulatory Intelligence Platform</text>
  <text x="610" y="49" class="sub">Shows NovaCura in its environment: external actors, enterprise systems, major information flows, boundaries and outcomes.</text>

  <rect x="25" y="122" width="260" height="600" rx="14" class="panel"/><rect x="25" y="122" width="260" height="42" rx="14" fill="#0b57d0"/><text x="155" y="150" text-anchor="middle" font-family="Arial" font-size="18" font-weight="700" fill="#fff">EXTERNAL ACTORS</text>
  <g><circle cx="70" cy="215" r="22" fill="#1a73e8"/><text x="108" y="207" class="h">Regulatory Affairs</text><text x="108" y="229" class="sm">Dossiers, submissions, intelligence</text></g>
  <g><circle cx="70" cy="300" r="22" fill="#34a853"/><text x="108" y="292" class="h">Clinical / R&amp;D</text><text x="108" y="314" class="sm">Evidence, study and trial teams</text></g>
  <g><circle cx="70" cy="385" r="22" fill="#8b5cf6"/><text x="108" y="377" class="h">Safety / PV</text><text x="108" y="399" class="sm">Signals, cases, risk management</text></g>
  <g><circle cx="70" cy="470" r="22" fill="#f9ab00"/><text x="108" y="462" class="h">Medical / Legal</text><text x="108" y="484" class="sm">Review, claims and compliance</text></g>
  <g><circle cx="70" cy="555" r="22" fill="#ea4335"/><text x="108" y="547" class="h">Quality / Compliance</text><text x="108" y="569" class="sm">GxP controls, audit, SOPs</text></g>
  <g><circle cx="70" cy="640" r="22" fill="#64748b"/><text x="108" y="632" class="h">Executives</text><text x="108" y="654" class="sm">Portfolio risk and decisions</text></g>

  <rect x="360" y="122" width="820" height="600" rx="18" class="panel"/><text x="770" y="163" text-anchor="middle" font-family="Arial" font-size="27" font-weight="700" fill="#0b57d0">NovaCura Regulatory Intelligence Platform</text><text x="770" y="190" text-anchor="middle" class="sub">Enterprise AI platform for regulatory knowledge, evidence, agent-assisted analysis and governed decision support</text>
  <rect x="390" y="220" width="230" height="125" rx="14" class="soft"/><text x="505" y="252" text-anchor="middle" class="h">Regulatory Intelligence</text><text x="415" y="280" class="t">• Global guidance monitoring</text><text x="415" y="304" class="t">• Requirement extraction</text><text x="415" y="328" class="t">• Change impact analysis</text>
  <rect x="645" y="220" width="230" height="125" rx="14" class="soft"/><text x="760" y="252" text-anchor="middle" class="h">Submission Workspace</text><text x="670" y="280" class="t">• eCTD content assistance</text><text x="670" y="304" class="t">• Evidence traceability</text><text x="670" y="328" class="t">• Review workflow</text>
  <rect x="900" y="220" width="230" height="125" rx="14" class="soft"/><text x="1015" y="252" text-anchor="middle" class="h">AI / Agent Services</text><text x="925" y="280" class="t">• Research &amp; analysis agents</text><text x="925" y="304" class="t">• RAG / grounded generation</text><text x="925" y="328" class="t">• Tool &amp; protocol access</text>
  <rect x="390" y="375" width="230" height="125" rx="14" class="green"/><text x="505" y="407" text-anchor="middle" class="h">Knowledge Platform</text><text x="415" y="435" class="t">• Regulatory corpus</text><text x="415" y="459" class="t">• Clinical / safety evidence</text><text x="415" y="483" class="t">• Metadata, lineage, citations</text>
  <rect x="645" y="375" width="230" height="125" rx="14" class="green"/><text x="760" y="407" text-anchor="middle" class="h">Analytics &amp; Decisions</text><text x="670" y="435" class="t">• Risk scoring &amp; trends</text><text x="670" y="459" class="t">• Gap / readiness analysis</text><text x="670" y="483" class="t">• Executive insights</text>
  <rect x="900" y="375" width="230" height="125" rx="14" class="purple"/><text x="1015" y="407" text-anchor="middle" class="h">Governance &amp; Trust</text><text x="925" y="435" class="t">• HITL / approvals</text><text x="925" y="459" class="t">• Policy &amp; guardrails</text><text x="925" y="483" class="t">• Audit / evaluation</text>
  <rect x="390" y="535" width="740" height="70" rx="12" class="box"/><text x="760" y="565" text-anchor="middle" class="h">Integration &amp; API Layer</text><text x="760" y="589" text-anchor="middle" class="t">REST / GraphQL / Events • MCP • A2A • Enterprise connectors • API gateway • Orchestration</text>
  <rect x="390" y="620" width="740" height="70" rx="12" class="box"/><text x="760" y="650" text-anchor="middle" class="h">Data &amp; AI Foundation</text><text x="760" y="674" text-anchor="middle" class="t">BigQuery • Cloud Storage • Vector / search indexes • Vertex AI / Gemini • IAM • KMS • Observability</text>

  <rect x="1255" y="122" width="320" height="600" rx="14" class="panel"/><rect x="1255" y="122" width="320" height="42" rx="14" fill="#0b57d0"/><text x="1415" y="150" text-anchor="middle" font-family="Arial" font-size="18" font-weight="700" fill="#fff">EXTERNAL SYSTEMS</text>
  <g><rect x="1280" y="185" width="270" height="66" rx="10" class="box"/><text x="1300" y="212" class="h">Regulatory Authorities</text><text x="1300" y="235" class="sm">FDA • EMA • MHRA • PMDA • Health Canada</text></g>
  <g><rect x="1280" y="266" width="270" height="66" rx="10" class="box"/><text x="1300" y="293" class="h">Content / RIM</text><text x="1300" y="316" class="sm">Veeva Vault • SharePoint • Document stores</text></g>
  <g><rect x="1280" y="347" width="270" height="66" rx="10" class="box"/><text x="1300" y="374" class="h">Clinical / Safety</text><text x="1300" y="397" class="sm">CTMS • EDC • Safety databases • Trial systems</text></g>
  <g><rect x="1280" y="428" width="270" height="66" rx="10" class="box"/><text x="1300" y="455" class="h">Enterprise Platforms</text><text x="1300" y="478" class="sm">SAP • ServiceNow • Data platforms</text></g>
  <g><rect x="1280" y="509" width="270" height="66" rx="10" class="box"/><text x="1300" y="536" class="h">Identity Provider</text><text x="1300" y="559" class="sm">Entra ID / Okta • SSO • MFA</text></g>
  <g><rect x="1280" y="590" width="270" height="66" rx="10" class="box"/><text x="1300" y="617" class="h">External Knowledge</text><text x="1300" y="640" class="sm">Literature • Standards • Public registries</text></g>

  <path d="M285 215 H360" class="flow"/><text x="322" y="205" text-anchor="middle" class="sm">HTTPS</text><path d="M285 300 H360" class="flow"/><path d="M285 385 H360" class="flow"/><path d="M285 470 H360" class="flow"/><path d="M285 555 H360" class="flow"/><path d="M285 640 H360" class="flow"/>
  <path d="M1180 218 H1280" class="line"/><text x="1230" y="206" text-anchor="middle" class="sm">API / files</text><path d="M1280 299 H1180" class="line"/><text x="1230" y="288" text-anchor="middle" class="sm">REST</text><path d="M1180 380 H1280" class="line"/><text x="1230" y="369" text-anchor="middle" class="sm">FHIR / APIs</text><path d="M1280 461 H1180" class="dash"/><text x="1230" y="449" text-anchor="middle" class="sm">events</text><path d="M1280 542 H1180" class="line"/><text x="1230" y="530" text-anchor="middle" class="sm">OIDC</text><path d="M1280 623 H1180" class="dash"/><text x="1230" y="611" text-anchor="middle" class="sm">reference</text>

  <rect x="25" y="755" width="505" height="215" rx="14" class="box"/><text x="48" y="787" class="h">KEY FLOWS</text><text x="48" y="817" class="t">1. Users authenticate and access governed NovaCura experiences.</text><text x="48" y="847" class="t">2. Regulatory and enterprise content is ingested, classified and indexed.</text><text x="48" y="877" class="t">3. AI agents retrieve grounded evidence and execute approved tools.</text><text x="48" y="907" class="t">4. Human reviewers approve high-risk outputs and submission content.</text><text x="48" y="937" class="t">5. Decisions, citations, evaluations and audit evidence are retained.</text>
  <rect x="550" y="755" width="480" height="215" rx="14" class="green"/><text x="574" y="787" class="h">SECURITY &amp; COMPLIANCE</text><text x="574" y="817" class="t">• SSO / MFA • Least privilege IAM • Workload identity</text><text x="574" y="847" class="t">• TLS in transit • CMEK/KMS at rest • Secrets management</text><text x="574" y="877" class="t">• Data classification • DLP • regional controls • audit logging</text><text x="574" y="907" class="t">• GxP / 21 CFR Part 11-ready controls where applicable</text><text x="574" y="937" class="t">• AI safety, grounding, evaluation, HITL and traceability</text>
  <rect x="1050" y="755" width="525" height="215" rx="14" class="purple"/><text x="1074" y="787" class="h">DIAGRAM INFO / LEGEND</text><line x1="1080" y1="825" x2="1150" y2="825" class="flow"/><text x="1170" y="830" class="t">Primary user / data flow</text><line x1="1080" y1="860" x2="1150" y2="860" class="line"/><text x="1170" y="865" class="t">Synchronous integration</text><line x1="1080" y1="895" x2="1150" y2="895" class="dash"/><text x="1170" y="900" class="t">Async / optional / reference flow</text><text x="1074" y="938" class="t">Level: L1 Conceptual / Executive • Environment: Production • View: System Context</text>
</svg>